<svg width="166" height="40" viewBox="0 0 166 40" fill="none" xmlns="http://www.w3.org/2000/svg">
<path d="M47.4348 30C45.1908 30 43.4801 29.3873 42.3027 28.162C41.1253 26.9366 40.5366 25.0493 40.5366 22.5C40.5366 19.993 41.1322 18.1197 42.3235 16.8803C43.5148 15.6268 45.2185 15 47.4348 15C48.6538 15 49.7342 15.2113 50.6761 15.6338C51.6181 16.0423 52.3591 16.669 52.8993 17.5141C53.4534 18.3451 53.7304 19.3732 53.7304 20.5986H51.0086C51.0086 19.5423 50.6831 18.7254 50.032 18.1479C49.3948 17.5704 48.543 17.2817 47.4764 17.2817C46.0496 17.2817 44.99 17.6972 44.2974 18.5282C43.6048 19.3592 43.2585 20.6127 43.2585 22.2887V22.7113C43.2585 24.4014 43.5979 25.662 44.2766 26.493C44.9692 27.3099 46.0358 27.7183 47.4764 27.7183C48.5984 27.7183 49.4849 27.4366 50.1359 26.8732C50.7869 26.2958 51.1125 25.4859 51.1125 24.4437H53.7304C53.7304 26.2606 53.1487 27.6408 51.9851 28.5845C50.8354 29.5282 49.3187 30 47.4348 30Z" fill="#F5F5F5"/>
<path d="M60.248 15.2535H63.5932L69.1408 29.7465H66.2735L65.11 26.5986H58.5858L57.443 29.7465H54.7003L60.248 15.2535ZM64.2581 24.3169L62.8036 20.3451C62.582 19.7817 62.3465 19.0634 62.0972 18.1901C62.0556 18.0634 62.0141 17.9507 61.9725 17.8521C61.9448 17.7394 61.9171 17.6479 61.8894 17.5775H61.7855L61.5778 18.2324L60.8713 20.3451L59.4169 24.3169H64.2581Z" fill="#F5F5F5"/>
<path d="M72.7127 17.5775H68.1208V15.2535H79.9433V17.5775H75.3514V29.7465H72.7127V17.5775Z" fill="#F5F5F5"/>
<path d="M81.8616 15.2535H84.5212V21.169H91.2532V15.2535H93.9127V29.7465H91.2532V23.493H84.5212V29.7465H81.8616V15.2535Z" fill="#F5F5F5"/>
<path d="M96.8565 15.2535H107.973V17.5563H99.516V21.1901H107.058V23.493H99.516V27.4437H108.097V29.7465H96.8565V15.2535Z" fill="#F5F5F5"/>
<path d="M110.715 15.2535H116.408C118.611 15.2535 120.314 15.8592 121.519 17.0704C122.725 18.2676 123.327 20.0775 123.327 22.5C123.327 24.9225 122.725 26.7394 121.519 27.9507C120.314 29.1479 118.611 29.7465 116.408 29.7465H110.715V15.2535ZM116.408 27.4437C117.766 27.4437 118.798 27.0493 119.504 26.2606C120.224 25.4718 120.591 24.2887 120.605 22.7113V22.2887C120.605 20.7254 120.245 19.5493 119.525 18.7606C118.804 17.9577 117.766 17.5563 116.408 17.5563H113.375V27.4437H116.408Z" fill="#F5F5F5"/>
<path d="M125.71 15.2535H133.231C134.769 15.2535 135.926 15.6408 136.701 16.4155C137.491 17.1901 137.886 18.2676 137.886 19.6479C137.886 20.6338 137.671 21.4789 137.241 22.1831C136.812 22.8732 136.182 23.3873 135.351 23.7254L138.405 29.7465H135.496L132.795 24.1479H128.369V29.7465H125.71V15.2535ZM133.024 21.8662C133.702 21.8662 134.236 21.669 134.623 21.2746C135.011 20.8803 135.205 20.338 135.205 19.6479C135.205 18.9859 135.018 18.4718 134.644 18.1056C134.27 17.7394 133.73 17.5563 133.024 17.5563H128.369V21.8662H133.024Z" fill="#F5F5F5"/>
<path d="M144.86 15.2535H148.205L153.753 29.7465H150.886L149.722 26.5986H143.198L142.055 29.7465H139.313L144.86 15.2535ZM148.87 24.3169L147.416 20.3451C147.194 19.7817 146.959 19.0634 146.709 18.1901C146.668 18.0634 146.626 17.9507 146.585 17.8521C146.557 17.7394 146.529 17.6479 146.502 17.5775H146.398L146.19 18.2324L145.484 20.3451L144.029 24.3169H148.87Z" fill="#F5F5F5"/>
<path d="M155.314 15.2535H157.974V27.4014H165.537V29.7465H155.314V15.2535Z" fill="#F5F5F5"/>
<path fill-rule="evenodd" clip-rule="evenodd" d="M28.0089 17.7545L22.924 14.1413C22.5281 13.8606 22.0011 13.8174 21.5607 14.0296C21.1204 14.2424 20.8437 14.6741 20.8437 15.1471V32.4725C20.8437 33.1636 21.4276 33.723 22.1474 33.723C22.8679 33.723 23.4517 33.1636 23.4517 32.4725V17.6301L25.928 19.3895V33.5328L18.3821 36.3983V11.5598C18.3821 11.1634 18.1858 10.7902 17.853 10.5541L15.2471 8.70563V5.18161H16.9349C17.4758 5.18161 17.9133 4.76189 17.9133 4.24373C17.9133 3.72557 17.4758 3.30519 16.9349 3.30519H15.2471L15.2464 0.937878C15.2464 0.419717 14.8088 0 14.2687 0C13.7278 0 13.2902 0.419717 13.2902 0.937878V3.30519H11.6017C11.0623 3.30519 10.624 3.72557 10.624 4.24373C10.624 4.76189 11.0623 5.18161 11.6017 5.18161H13.2902V8.70563L10.6836 10.5541C10.3508 10.7902 10.1546 11.1634 10.1546 11.5598V36.3983L2.60868 33.5328V19.3895L5.08491 17.6301V32.4725C5.08491 33.1636 5.66877 33.723 6.38924 33.723C7.10971 33.723 7.69358 33.1636 7.69358 32.4725V15.1471C7.69358 14.6741 7.41621 14.2424 6.97588 14.0296C6.53556 13.8167 6.00855 13.8606 5.6133 14.1413L0.528392 17.7545C0.19624 17.99 0 18.3631 0 18.7596V34.3829C0 34.8957 0.327298 35.3567 0.823792 35.5462L10.9783 39.4022C11.3805 39.5545 11.8347 39.5066 12.1912 39.2738C12.549 39.0403 12.7632 38.6532 12.7632 38.2388V12.1911L14.2687 11.1235L15.7734 12.1911V38.2388C15.7734 38.6532 15.9877 39.0403 16.3455 39.2738C16.5646 39.4168 16.8205 39.49 17.0777 39.49C17.2407 39.49 17.403 39.4607 17.5583 39.4022L27.7121 35.5462C28.21 35.3567 28.5366 34.8957 28.5366 34.3829V18.7596C28.5366 18.3631 28.3411 17.99 28.0089 17.7545Z" fill="#F9F9F9"/>
</svg>
