<svg width="160" height="33" viewBox="0 0 160 33" fill="none" xmlns="http://www.w3.org/2000/svg">
<g opacity="0.8">
<path d="M2.55527 14.4617C1.9372 14.4027 1.43687 14.4027 0.995393 14.4912C0.112445 14.6388 -0.240734 15.2291 0.171308 16.085C0.671646 17.2065 4.23287 19.0363 11.0904 19.7447C11.1493 23.4044 11.3259 26.5623 11.6496 28.2446C11.8557 28.5102 12.0322 28.8054 12.356 28.8349C12.5326 28.8054 12.5914 28.7168 12.5914 28.5693L12.5031 28.4217C12.3266 26.1196 12.1794 22.9026 12.1205 19.8627C13.3567 19.9513 14.6811 20.0103 16.1232 20.0398C19.0958 22.2533 22.3039 25.7064 23.3634 29.5432C23.3928 29.7793 23.4223 30.0154 23.5106 30.163C23.5106 30.1925 23.5106 30.222 23.54 30.2811C23.54 30.3401 23.5694 30.3401 23.5989 30.3106C23.8343 30.5467 24.1581 30.7238 24.3935 30.7533C24.5995 30.7828 24.6584 30.6647 24.6584 30.5172L24.5995 30.3696H24.629C24.5701 30.2811 24.4818 29.8974 24.3347 28.8054C23.9226 24.88 23.6872 23.4634 23.7166 19.9217C25.3942 19.7742 27.1307 19.5086 28.7788 19.0954C29.8089 18.8297 29.8384 17.9738 29.7206 18.0919C28.043 18.387 25.8945 18.6822 23.7166 18.8888C23.7166 14.9044 23.746 11.6284 23.8637 9.23779C23.9815 6.55204 24.4524 2.83332 24.7467 2.42012C24.8644 2.27255 24.7761 2.00693 24.5112 1.77082C24.2758 1.56423 23.7754 1.5052 23.6872 1.65277C22.7748 5.1649 22.6571 10.4478 22.6571 15.8489V18.9773C20.8617 19.1249 19.1547 19.2134 17.6831 19.2134C17.1533 19.2134 16.6824 19.2134 16.241 19.1839L15.4169 18.6822C14.269 18.0329 13.1801 17.4721 12.1205 16.9999L12.1794 15.4652C12.4149 9.59195 12.4737 4.07289 13.1212 1.38714C13.1801 0.914925 12.0911 0.649302 11.8557 0.973952C11.3553 4.309 11.0904 10.684 11.061 16.5572C7.11717 14.9634 3.93855 14.5798 2.55527 14.4617ZM1.08369 15.5832C1.17198 15.2881 1.64289 15.1405 2.40811 15.1405C4.23287 15.1405 7.7058 15.9669 11.061 17.3541V18.7707C6.05763 18.1509 0.848235 16.5572 1.08369 15.5832ZM23.0102 25.913C21.4209 23.4634 19.4784 21.5155 17.5065 20.0693C17.9774 20.0693 18.5955 20.0988 19.2724 20.0988C20.2731 20.0988 21.4209 20.0693 22.6571 19.9808C22.6865 22.7255 22.8336 24.0241 23.0102 25.913ZM14.5045 19.0363C13.7393 19.0363 12.9446 18.9773 12.1205 18.8888V17.8263C12.9446 18.2099 13.7393 18.5936 14.5045 19.0363Z" fill="#F5F5F5"/>
<path d="M29.2743 21.3384C29.5981 21.545 29.9513 21.6335 30.3339 21.6335C31.8937 21.6335 33.8362 20.1283 34.6603 19.3905C35.0429 20.453 35.7787 21.0138 36.75 21.2499C37.9861 21.545 40.0169 20.6006 40.7527 19.8627C42.3714 18.2395 41.9299 17.5016 41.4296 18.0034C40.37 19.1839 37.8389 20.6891 36.3379 20.394C35.8081 20.2464 35.661 19.6561 35.6904 19.1544C35.7493 18.5936 36.0142 18.0624 36.1613 17.6197C36.3673 17.2655 35.3667 16.6162 35.1901 16.9409L34.6897 17.6197H34.6603C33.9245 17.295 33.1004 17.1179 32.2764 17.1179C31.2462 17.1179 30.2456 17.3836 29.4509 17.9148C28.7151 18.4165 28.3914 19.0658 28.3914 19.7151C28.3914 20.3349 28.6857 20.8957 29.2743 21.3384ZM29.8041 20.6891C29.3626 20.6596 29.186 20.3349 29.2743 19.9808C29.5981 18.6231 31.5406 18.0624 33.0121 18.0624C33.4536 18.0624 33.8657 18.1214 34.16 18.2099C33.1299 19.302 31.2168 20.512 29.8041 20.6891Z" fill="#F5F5F5"/>
<path d="M41.0585 21.604C41.1762 22.0467 42.1474 22.4304 42.118 22.0467C42.2357 21.1908 42.2357 21.0138 42.324 20.7776C43.0304 18.7412 45.4732 16.9409 46.9448 16.9704L46.9154 17.2065C46.8859 17.4426 47.298 17.6197 47.71 17.1475C47.916 16.9113 47.504 16.2916 46.8271 16.1735C45.2083 15.9079 43.0304 17.6197 42.2946 18.5641L42.324 17.4131C42.324 17.236 42.1474 16.9409 41.8825 16.7933C41.5882 16.6457 41.2939 16.6457 41.2939 16.8523C40.8819 20.571 40.9407 21.3384 41.0585 21.604Z" fill="#F5F5F5"/>
<path d="M50.2505 21.545C50.692 21.9877 51.0746 21.8696 51.575 21.7221C52.3108 21.486 53.076 19.9217 53.3997 18.8297C53.8118 19.1544 54.5181 19.2429 55.2539 19.2429C56.1957 19.2429 57.2258 19.0658 57.7262 18.8888C58.3737 18.6527 58.9034 17.9443 58.1382 18.0624C57.3436 18.1804 56.3723 18.328 55.4305 18.328C54.8124 18.328 54.1944 18.2395 53.6646 18.0624V18.0329C53.9295 17.1475 53.282 16.6457 52.9288 16.7933C52.6639 16.9704 52.4285 17.4426 52.6051 18.0624C52.3108 18.9183 51.3689 21.1613 50.8392 21.1908C50.2505 20.4825 50.1328 18.21 50.2505 17.295C50.3094 17.0884 50.074 16.7933 49.8974 16.6752C49.6031 16.5277 49.3382 16.6162 49.3087 16.8228C49.2204 17.236 49.191 17.6492 49.191 18.0919C49.191 19.3315 49.5148 20.6596 50.2505 21.545Z" fill="#F5F5F5"/>
<path d="M61.9025 22.2238C63.9333 22.1058 65.8169 20.6596 66.641 18.9478C67.053 18.1214 67.1707 17.4426 66.4938 18.1509C65.2577 19.4495 63.1975 21.5155 60.4309 21.5155C59.4008 21.5155 58.3707 20.571 58.2824 20.0103C59.3125 20.0103 60.5781 19.302 60.9607 18.3575C61.2844 17.5016 60.4309 16.6162 59.5185 16.6162C58.0764 16.6752 57.1934 18.0034 57.1934 19.302C57.1934 19.5971 57.2523 19.8922 57.3406 20.1579C57.9292 21.9877 60.166 22.3124 61.9025 22.2238ZM59.9894 17.6197C60.3132 17.9443 59.4891 18.7412 58.253 19.302C58.2235 18.5641 59.3714 16.9999 59.9894 17.6197Z" fill="#F5F5F5"/>
<path d="M70.4121 32.9078C70.6476 33.0553 70.9125 33.0258 70.8536 32.8192C71.0302 27.92 71.2951 23.6405 71.7365 19.1544C71.9426 18.328 71.9426 17.6197 71.8248 17.177C71.7071 16.7048 70.7947 16.3211 70.7653 16.7343C70.5887 18.0919 69.8529 19.8627 68.4991 20.394C67.9399 20.6301 67.675 20.3645 67.4395 19.9217C67.2924 19.5381 67.2335 19.1544 67.2335 18.7412C67.2335 18.387 67.2924 18.0329 67.4101 17.7082C67.5278 17.4131 67.7044 17.236 67.7633 17.2065C67.9693 17.1475 67.9104 16.8818 67.6455 16.6457C67.469 16.4096 67.1452 16.2916 66.9686 16.3506C66.4683 16.5277 66.2034 17.4426 66.174 18.2985C66.2917 19.8332 67.2629 21.3679 68.6757 21.3679C69.3526 21.3679 69.9412 20.9842 70.471 20.453C70.2061 24.0241 69.9706 28.2446 69.9706 30.9008C69.9706 31.314 70.0001 31.6682 70.0001 31.9928C70.0001 32.1994 70.1472 32.7307 70.4121 32.9078Z" fill="#F5F5F5"/>
<path d="M82.6874 6.93572C82.3636 7.43745 82.9228 7.93918 83.2466 7.82113C86.1898 6.4635 90.6339 4.86976 94.5483 3.63018C94.3423 6.40447 94.254 9.14924 94.254 12.5728C94.254 13.7829 94.254 15.0815 94.2834 16.5277C91.7523 16.6162 89.2506 16.7933 86.3663 17.0589C86.1898 17.0884 86.1309 17.295 86.3369 17.5311C86.3663 17.5902 86.3958 17.6197 86.4841 17.6787C86.4841 17.7082 86.5135 17.7377 86.5135 17.7377C86.749 17.8853 86.9844 17.9738 87.1316 17.9148H87.1904C89.4567 18.5346 92.3115 20.571 93.842 23.1387C94.048 23.4044 94.1363 23.6995 94.3717 24.0241C94.3717 24.762 94.5778 29.012 94.8132 29.6022C94.8132 29.6318 94.8426 29.6613 94.8132 29.6908C94.9604 29.9269 95.2841 30.222 95.5196 30.1925C95.8139 30.163 95.9905 29.13 95.9905 27.9495C95.9905 26.6804 95.7845 25.2047 95.343 24.4964L95.2547 17.3836C96.8146 17.3245 100.17 17.295 101.965 17.295C102.995 17.295 104.084 17.3245 105.261 17.3245C105.497 17.3245 105.615 17.1475 105.379 16.9113C105.203 16.6457 104.879 16.4391 104.643 16.4391H102.407C100.435 16.4391 96.9323 16.4686 95.2253 16.4982C95.2547 12.2482 95.2547 8.76557 95.6962 3.24651C97.6386 2.65623 99.3457 2.18401 100.641 1.82985C103.201 1.18055 105.526 0.826383 107.41 0.826383C109.764 0.826383 111.471 1.38714 112.207 2.56769C112.296 2.74477 112.59 2.68575 112.531 2.33158C112.09 0.56076 109.706 0 107.027 0C104.791 0 102.318 0.383678 100.523 0.826383C99.3162 1.15103 97.6681 1.59374 95.9022 2.1545C95.9316 2.00693 95.9905 1.91839 96.0493 1.85936C96.1082 1.74131 95.9905 1.44617 95.6962 1.2986C95.343 1.06249 95.1075 1.06249 94.9604 1.15103C94.7838 1.44617 94.6955 1.91839 94.6072 2.56769C90.7516 3.80727 86.4546 5.37149 84.0118 6.40447L82.6874 6.93572ZM88.6914 17.7968C90.5751 17.6197 92.4881 17.5016 94.254 17.4426L94.3129 22.4009C93.1356 20.7776 91.1048 18.9773 88.6914 17.7968Z" fill="#F5F5F5"/>
<path d="M108.378 21.1908C108.937 21.8106 109.732 21.9877 110.468 21.9582C112.498 21.8696 115.177 19.5381 115.736 18.5051C116.089 17.8558 115.795 17.6787 115.677 17.7968C114.794 18.6822 111.674 21.0433 109.85 21.0433C109.526 21.0433 109.231 20.9547 108.996 20.7776C108.555 20.394 109.143 17.0589 109.379 16.8228C109.408 16.6752 109.231 16.4391 108.908 16.3211C108.555 16.2325 108.26 16.262 108.231 16.4096C107.907 16.9113 107.73 17.8263 107.73 18.7412C107.73 19.7151 107.936 20.7186 108.378 21.1908ZM108.996 14.3437C109.261 14.4912 109.614 14.4912 109.702 14.3732C109.791 14.2256 110.026 13.5763 110.085 13.4287C110.173 13.2516 110.173 13.0451 110.173 12.927C110.232 12.7794 109.997 12.5433 109.614 12.4548C109.32 12.3367 108.996 12.3958 108.996 12.5728L108.937 13.0155C108.878 13.1631 108.672 13.7534 108.613 13.8419C108.466 13.96 108.643 14.2256 108.996 14.3437Z" fill="#F5F5F5"/>
<path d="M115.212 21.9287C115.654 22.1058 116.36 22.1943 117.096 22.1943C117.861 22.1943 118.626 22.1058 119.156 21.9582C119.921 21.7516 120.481 20.9252 119.833 20.3644C119.244 19.8922 118.361 19.4495 117.243 18.8297C116.654 18.4756 115.978 18.1804 116.154 17.7672C116.478 16.9999 119.156 16.4982 120.245 16.1145C120.481 15.8193 119.892 15.2586 119.421 15.3176C117.92 15.5242 114.712 16.4686 114.947 18.0329C115.065 18.9183 115.889 19.2134 116.654 19.6561C117.243 19.9808 118.361 20.5415 119.097 20.9252C118.332 21.1023 117.155 21.2499 116.213 21.2499C115.83 21.2499 115.507 21.2203 115.242 21.1613C114.594 21.0138 114.859 21.7516 115.212 21.9287Z" fill="#F5F5F5"/>
<path d="M123.708 19.1839C123.944 18.0624 125.033 16.9704 126.122 17.2065C126.092 17.5311 125.975 17.7672 125.916 17.8853C125.71 18.269 125.975 18.387 126.269 18.269C126.534 18.1804 127.152 17.9738 127.152 17.4721C127.122 17.177 126.858 16.8228 126.475 16.6162C126.092 16.4096 125.71 16.3506 125.386 16.3506C124.738 16.3506 124.209 16.6162 123.797 16.9409C123.12 17.5016 122.767 18.2985 122.737 19.1249C122.649 21.0433 124.326 22.1943 126.033 22.1943C129.624 21.9877 131.567 19.6561 132.038 18.7707C132.244 18.387 132.038 17.8853 131.861 18.0034C130.095 19.5676 127.976 21.1318 125.533 21.3089C124.209 21.3089 123.443 20.453 123.708 19.1839Z" fill="#F5F5F5"/>
<path d="M131.657 21.9287C131.775 22.4009 132.688 22.7846 132.658 22.3419C132.776 20.9842 135.866 17.8558 137.544 17.9443C137.544 18.1509 137.485 18.5051 137.485 18.9183C137.485 19.5381 137.632 20.3054 138.309 20.8072C138.986 21.2499 139.633 21.3974 140.281 21.3974C142.165 21.3974 144.372 20.2759 145.019 19.302C145.461 18.6527 145.608 17.7082 145.343 18.0329C144.401 19.302 141.223 20.5415 139.692 20.5415C139.369 20.5415 139.045 20.4825 138.75 20.3349C138.544 19.479 138.78 18.6527 138.692 17.9443C138.574 17.5606 138.132 17.2065 137.72 17.0884C136.043 16.5572 133.541 18.9183 132.629 19.9513V17.3245C132.688 13.2812 132.746 9.44438 133.129 5.66663C133.129 5.22392 131.981 4.86976 131.981 5.28295C131.775 9.0607 131.628 12.6909 131.628 16.7638V20.9547C131.628 21.5155 131.628 21.8696 131.657 21.9287Z" fill="#F5F5F5"/>
<path d="M148.818 22.2238C150.848 22.1058 152.732 20.6596 153.556 18.9478C153.968 18.1214 154.086 17.4426 153.409 18.1509C152.173 19.4495 150.113 21.5155 147.346 21.5155C146.316 21.5155 145.286 20.571 145.198 20.0103C146.228 20.0103 147.493 19.302 147.876 18.3575C148.2 17.5016 147.346 16.6162 146.434 16.6162C144.992 16.6752 144.109 18.0034 144.109 19.302C144.109 19.5971 144.167 19.8922 144.256 20.1579C144.844 21.9877 147.081 22.3124 148.818 22.2238ZM146.905 17.6197C147.228 17.9443 146.404 18.7412 145.168 19.302C145.139 18.5641 146.287 16.9999 146.905 17.6197Z" fill="#F5F5F5"/>
<path d="M153.295 21.604C153.413 22.0467 154.384 22.4304 154.355 22.0467C154.472 21.1908 154.472 21.0138 154.561 20.7776C155.267 18.7412 157.71 16.9409 159.181 16.9704L159.152 17.2065C159.123 17.4426 159.535 17.6197 159.947 17.1475C160.153 16.9113 159.741 16.2916 159.064 16.1735C157.445 15.9079 155.267 17.6197 154.531 18.5641L154.561 17.4131C154.561 17.236 154.384 16.9409 154.119 16.7933C153.825 16.6457 153.531 16.6457 153.531 16.8523C153.119 20.571 153.177 21.3384 153.295 21.604Z" fill="#F5F5F5"/>
</g>
</svg>
