<svg width="24" height="20" viewBox="0 0 24 20" fill="none" xmlns="http://www.w3.org/2000/svg">
<path d="M23.3697 2.85501C23.2177 2.68801 22.9727 2.64601 22.7717 2.74901C22.6467 2.81301 22.4117 2.89701 22.1327 2.98001C22.4847 2.51201 22.7677 1.98801 22.8927 1.51701C22.9467 1.31401 22.8677 1.10001 22.6957 0.979011C22.5237 0.859011 22.2947 0.859011 22.1227 0.979011C21.8517 1.16801 20.5437 1.73601 19.7167 1.92001C17.8477 0.283011 15.6727 0.113011 13.4117 1.43301C11.5737 2.50601 11.1737 4.68801 11.2517 6.01801C7.04467 5.61301 4.42967 3.39101 2.95767 1.55201C2.85467 1.42301 2.68867 1.35501 2.53267 1.36501C2.36867 1.37701 2.22067 1.46801 2.13667 1.60901C1.44067 2.78401 1.24767 4.08301 1.58067 5.36601C1.76267 6.06601 2.08067 6.68301 2.44967 7.18301C2.27267 7.09601 2.10167 6.98701 1.94067 6.85701C1.79267 6.73501 1.58567 6.71201 1.41067 6.79301C1.23667 6.87601 1.12567 7.05201 1.12567 7.24501C1.12567 9.44801 2.50367 10.918 3.79067 11.686C3.58267 11.661 3.36567 11.615 3.14667 11.548C2.95867 11.491 2.75467 11.548 2.62467 11.696C2.49467 11.843 2.46367 12.053 2.54467 12.232C3.26767 13.831 4.63767 14.931 6.33267 15.33C4.85267 16.199 2.87167 16.625 1.05767 16.416C0.822674 16.383 0.598674 16.532 0.524674 16.758C0.450674 16.984 0.547674 17.232 0.754674 17.348C3.50667 18.893 5.99467 19.445 8.14467 19.445C11.2737 19.445 13.6887 18.277 15.1587 17.3C19.1217 14.67 21.5917 9.94801 21.2477 5.72301C21.8827 5.25401 22.8327 4.38801 23.4217 3.45701C23.5437 3.26901 23.5217 3.02101 23.3697 2.85501Z" fill="white"/>
</svg>
