<svg width="24" height="24" viewBox="0 0 24 24" fill="none" xmlns="http://www.w3.org/2000/svg">
<path d="M17.5 6H20.5C20.776 6 21 5.776 21 5.5V2.5C21 2.224 20.776 2 20.5 2H17.5C17.224 2 17 2.224 17 2.5V5.5C17 5.776 17.224 6 17.5 6Z" fill="white"/>
<path fill-rule="evenodd" clip-rule="evenodd" d="M18 12C18 15.309 15.309 18 12 18C8.691 18 6 15.309 6 12C6 8.691 8.691 6 12 6C15.309 6 18 8.691 18 12ZM14 12C14 10.897 13.103 10 12 10C10.897 10 10 10.897 10 12C10 13.103 10.897 14 12 14C13.103 14 14 13.103 14 12Z" fill="white"/>
<path fill-rule="evenodd" clip-rule="evenodd" d="M3.5 0H20.5C22.43 0 24 1.57 24 3.5V8.5V20.5C24 22.43 22.43 24 20.5 24H3.5C1.57 24 0 22.43 0 20.5V8.5V3.5C0 1.57 1.57 0 3.5 0ZM2 4.5V1.513C1.396 1.969 1 2.686 1 3.5V8H5.372C5.548 8 5.71 8.092 5.8 8.242C5.89 8.392 5.895 8.579 5.813 8.734C5.273 9.752 5 10.851 5 12C5 15.86 8.141 19 12 19C15.859 19 19 15.86 19 12C19 10.851 18.727 9.752 18.186 8.734C18.104 8.579 18.109 8.392 18.199 8.242C18.29 8.092 18.452 8 18.628 8H23V3.5C23 2.122 21.879 1 20.5 1H7V4.5C7 4.776 6.776 5 6.5 5C6.224 5 6 4.776 6 4.5V1H5V4.5C5 4.776 4.776 5 4.5 5C4.224 5 4 4.776 4 4.5V1H3.5C3.329 1 3.162 1.018 3 1.051V4.5C3 4.776 2.776 5 2.5 5C2.224 5 2 4.776 2 4.5Z" fill="white"/>
</svg>
