<svg width="113" height="112" viewBox="0 0 113 112" fill="none" xmlns="http://www.w3.org/2000/svg">
<g clip-path="url(#clip0)">
<path d="M27.2913 86.5628C26.8716 88.786 25.5907 90.7557 23.725 92.0469C22.0888 93.6144 19.9012 94.482 17.6305 94.464C16.5735 94.3252 15.5565 93.9708 14.6433 93.423C13.73 92.8752 12.9401 92.1457 12.3229 91.2802C11.1 89.9296 10.3893 88.1962 10.3137 86.3794C10.3357 85.5236 10.5555 84.6844 10.9563 83.9269C11.357 83.1695 11.9278 82.5142 12.6243 82.0121L14.2986 84.0457C13.8598 84.3658 13.4973 84.7781 13.2368 85.2535C12.9764 85.7289 12.8244 86.2556 12.7917 86.7962C12.8064 87.9384 13.2412 89.0356 14.014 89.8799C14.422 90.4668 14.9543 90.9575 15.5733 91.3175C16.1924 91.6775 16.8831 91.898 17.597 91.9636C19.2236 91.8437 20.7545 91.1525 21.9168 90.0133L22.1177 89.8466C23.4614 88.9301 24.4299 87.5636 24.8468 85.996C24.8988 85.2917 24.8003 84.5844 24.5579 83.9208C24.3155 83.2571 23.9346 82.652 23.4404 82.1455C22.7546 81.2034 21.7495 80.5402 20.6108 80.2785C20.0741 80.1964 19.5258 80.2362 19.0068 80.395C18.4877 80.5538 18.0115 80.8274 17.6138 81.1953L15.9394 79.2284C16.5684 78.6434 17.3255 78.2123 18.1509 77.9693C18.9763 77.7262 19.8471 77.6779 20.6945 77.8282C22.4633 78.2702 24.0245 79.3065 25.1147 80.7619C25.8577 81.5286 26.4343 82.4392 26.8087 83.4371C27.1832 84.435 27.3475 85.499 27.2913 86.5628Z" fill="#FFC963"/>
<path d="M3.34877 74.7611L2.29395 71.6773L15.6885 60.8257L16.5424 63.4594L13.2608 66.0431L15.5378 73.0442L19.7069 73.2275L20.5441 75.7612L3.34877 74.7611ZM11.4357 67.5267L7.45086 70.6271L4.92263 72.5441V72.6608H5.55887C6.41278 72.6608 7.2332 72.6608 8.03687 72.6608L13.0598 72.8941L11.4357 67.5267Z" fill="#FFC963"/>
<path d="M2.32731 57.7754V63.1095H0.133946L0 49.8909H2.24359V55.2083L16.1405 55.0083V57.6087L2.32731 57.7754Z" fill="#FFC963"/>
<path d="M1.08813 43.3399L1.95878 40.9062L8.37144 43.1732L11.0504 35.4887L4.70467 33.2384L5.57532 30.8047L20.7279 36.1722L19.8573 38.6225L13.16 36.2388L10.4141 43.94L17.1114 46.307L16.2408 48.7407L1.08813 43.3399Z" fill="#FFC963"/>
<path d="M9.76147 23.9036L17.9154 14.5022L19.5897 15.9524L13.1603 23.3368L16.509 26.2873L22.2854 19.6196L23.9597 21.0698L18.1833 27.7375L21.8668 30.9046L28.4637 23.4202L30.138 24.8704L21.9338 34.3551L9.76147 23.9036Z" fill="#FFC963"/>
<path d="M23.8591 9.6849L29.3174 6.7678C31.1431 5.64721 33.3388 5.28788 35.4287 5.76766C36.4789 6.12415 37.4435 6.69326 38.2619 7.43916C39.0802 8.18506 39.7346 9.09158 40.1838 10.1016C40.7779 11.0234 41.1764 12.0563 41.3549 13.137C41.5335 14.2177 41.4882 15.3233 41.2219 16.3859C40.462 18.3785 38.9469 19.9946 37.0026 20.8866L31.5443 23.787L23.8591 9.6849ZM35.864 18.9363C36.5125 18.6416 37.0944 18.2194 37.5749 17.6952C38.0554 17.171 38.4245 16.5556 38.6601 15.8858C38.9606 14.3642 38.6544 12.7859 37.8062 11.4852L37.689 11.2518C37.3869 10.5397 36.9456 9.89453 36.3909 9.35369C35.8362 8.81285 35.179 8.38716 34.4576 8.10134C33.7704 7.92117 33.0534 7.88294 32.3508 7.98901C31.6482 8.09508 30.9749 8.3432 30.3722 8.71809L27.2078 10.385L32.6996 20.6032L35.864 18.9363Z" fill="#FFC963"/>
<path d="M43.6162 0.950265L51.9041 0.000123478C52.5838 -0.125281 53.2818 -0.114696 53.9573 0.0312614C54.6328 0.177219 55.2724 0.455628 55.8388 0.85025C56.3425 1.25316 56.7529 1.75962 57.0418 2.33501C57.3308 2.9104 57.4916 3.54113 57.5131 4.18408C57.659 5.16704 57.5074 6.17099 57.0778 7.06784C56.6818 7.87841 56.0446 8.54778 55.2527 8.98479L59.5223 15.3524L56.7094 15.6525L52.6576 9.61822L47.2327 10.2016L47.9192 16.6693L45.3408 16.9526L43.6162 0.950265ZM52.6073 7.41789C52.9666 7.40278 53.3189 7.31347 53.6417 7.15565C53.9645 6.99783 54.2509 6.77493 54.4826 6.50109C54.6986 6.21305 54.8532 5.88403 54.9367 5.53428C55.0202 5.18454 55.0309 4.82147 54.9681 4.46745C54.9543 4.13126 54.8697 3.8017 54.7197 3.50018C54.5697 3.19865 54.3577 2.93189 54.0975 2.71719C53.5014 2.30803 52.7686 2.14656 52.0548 2.26713L46.4291 2.88389L46.9983 8.03465L52.6073 7.41789Z" fill="#FFC963"/>
<path d="M69.4677 1.43359L72.6321 2.28372L74.4571 19.3529L71.795 18.6362L71.3931 14.4855L64.2438 12.5686L61.816 15.9024L59.2375 15.219L69.4677 1.43359ZM71.142 12.1352L70.6732 7.13444L70.422 3.9673H70.3216L69.9532 4.48405C69.4844 5.20638 69.0156 5.88981 68.5468 6.53435L65.6167 10.635L71.142 12.1352Z" fill="#FFC963"/>
<path d="M83.9337 6.85107L86.0768 8.33463L78.2912 19.703L85.1895 24.4037L83.917 26.254L74.8589 20.003L83.9337 6.85107Z" fill="#FFC963"/>
<path d="M102.552 28.0376L99.8901 23.4369L101.832 22.3201L108.53 33.7884L106.571 34.9053L103.808 30.2879L91.8199 37.1389L90.5139 34.9053L102.552 28.0376Z" fill="#FFC963"/>
<path d="M110.505 39.8394L112.749 52.0578L110.572 52.4579L108.831 42.7898L104.394 43.6066L106.068 52.2579L103.808 52.6579L102.134 44.0066L97.3282 44.8901L99.1365 54.6916L97.1106 55.0916L94.8335 42.7398L110.505 39.8394Z" fill="#FFC963"/>
<path d="M113 60.1091L112.18 63.9097L101.38 65.0099C100.711 65.0099 99.7061 65.1099 98.5006 65.1266C99.3838 65.5054 100.245 65.934 101.079 66.4101L110.505 71.9276L109.685 75.6781L93.9631 72.3443L94.5157 69.8273L104.779 72.0443L107.575 72.7444V72.5943C106.922 72.2943 106.42 72.0276 106.052 71.8276L95.4365 65.4933L95.8551 63.343L108.111 62.1094C108.362 62.1094 108.781 62.1094 109.35 62.1094H109.836V61.9927L106.989 61.4427L96.7258 59.2257L97.295 56.6753L113 60.1091Z" fill="#FFC963"/>
<path d="M105.834 83.2459L101.347 89.5635C100.986 90.1676 100.501 90.6891 99.9241 91.0941C99.3471 91.4991 98.6909 91.7784 97.9981 91.9139C96.6679 91.988 95.3528 91.602 94.2756 90.8212C93.1985 90.0405 92.4256 88.9131 92.0878 87.6299C91.9938 86.9376 92.0418 86.2336 92.2289 85.5603C92.4159 84.887 92.7382 84.2585 93.1761 83.7127L96.1062 79.5621L91.2339 76.1282L92.724 74.0112L105.834 83.2459ZM95.0179 84.9128C94.7924 85.1963 94.6295 85.524 94.5401 85.8745C94.4506 86.2249 94.4366 86.5902 94.4988 86.9465C94.6876 87.6861 95.1553 88.3249 95.8048 88.7301C96.3898 89.1982 97.1329 89.4249 97.8809 89.3635C98.2273 89.2871 98.5543 89.1413 98.8422 88.935C99.13 88.7286 99.3727 88.4661 99.5553 88.1633L102.452 84.0794L97.8307 80.8289L95.0179 84.9128Z" fill="#FFC963"/>
<path d="M93.4773 98.3481L91.3677 99.8816L83.2137 88.6966L76.5165 93.614L75.177 91.7971L84.0342 85.3628L93.4773 98.3481Z" fill="#FFC963"/>
<path d="M74.2897 109.05L71.142 110.017L60.51 96.4979L63.1554 95.6978L65.7004 99.0316L72.7828 96.8813L73.0339 92.7473L75.5957 91.9639L74.2897 109.05ZM67.1571 100.865L70.2043 104.832L72.0963 107.399H72.1968V106.766C72.1968 105.916 72.1968 105.099 72.2972 104.299L72.6154 99.2983L67.1571 100.865Z" fill="#FFC963"/>
<path d="M57.178 109.716H62.5358V111.967L49.2417 111.85V109.65H54.5828L54.7 95.8811H57.2952L57.178 109.716Z" fill="#FFC963"/>
<path d="M42.8628 110.65L31.1426 106.433L31.896 104.349L41.1718 107.683L42.7121 103.449L34.3405 100.465L35.161 98.348L43.5326 101.332L45.2069 96.7644L35.7972 93.4306L36.5506 91.3469L48.4216 95.6142L42.8628 110.65Z" fill="#FFC963"/>
</g>
<defs>
<clipPath id="clip0">
<rect width="113" height="112" fill="white"/>
</clipPath>
</defs>
</svg>
